RBDS013runT25_grf
version=1
nRows=21
nColumns=19
inDegrees=no
endheader
time	ground_force_r_vx	ground_force_r_vy	ground_force_r_vz	ground_force_r_px	ground_force_r_py	ground_force_r_pz	ground_force_r_mx	ground_force_r_my	ground_force_r_mz	ground_force_l_vx	ground_force_l_vy	ground_force_l_vz	ground_force_l_px	ground_force_l_py	ground_force_l_pz	ground_force_l_mx	ground_force_l_my	ground_force_l_mz
     14.99900000	      0.00000000	      0.00000000	      0.00000000	      0.00000000	      0.00000000	      0.00000000	      0.00000000	      0.00000000	      0.00000000	    -83.87822239	    779.07853317	     10.12871520	      2.30187818	      0.00000000	      0.98684557	      0.00000000	      5.96225761	     -0.00000000
     15.00000000	      0.00000000	      0.00000000	      0.00000000	      0.00000000	      0.00000000	      0.00000000	      0.00000000	      0.00000000	      0.00000000	    -86.59147294	    800.53790888	     10.65994453	      2.30135667	      0.00000000	      0.98714683	      0.00000000	      6.05009914	     -0.00000000
     15.00100000	      0.00000000	      0.00000000	      0.00000000	      0.00000000	      0.00000000	      0.00000000	      0.00000000	      0.00000000	      0.00000000	    -89.21395855	    820.71738786	     11.13110598	      2.30076450	      0.00000000	      0.98741110	      0.00000000	      6.13425217	     -0.00000000
     15.00200000	      0.00000000	      0.00000000	      0.00000000	      0.00000000	      0.00000000	      0.00000000	      0.00000000	      0.00000000	      0.00000000	    -91.83644417	    840.89686684	     11.60226742	      2.30017233	      0.00000000	      0.98767537	      0.00000000	      6.21840520	     -0.00000000
     15.00300000	      0.00000000	      0.00000000	      0.00000000	      0.00000000	      0.00000000	      0.00000000	      0.00000000	      0.00000000	      0.00000000	    -94.45892978	    861.07634582	     12.07342886	      2.29958016	      0.00000000	      0.98793964	      0.00000000	      6.30255823	     -0.00000000
     15.00400000	      0.00000000	      0.00000000	      0.00000000	      0.00000000	      0.00000000	      0.00000000	      0.00000000	      0.00000000	      0.00000000	    -96.99041518	    880.40215230	     12.51591328	      2.29893431	      0.00000000	      0.98817823	      0.00000000	      6.38490970	     -0.00000000
     15.00500000	      0.00000000	      0.00000000	      0.00000000	      0.00000000	      0.00000000	      0.00000000	      0.00000000	      0.00000000	      0.00000000	    -99.47640046	    899.30112252	     12.94405920	      2.29826163	      0.00000000	      0.98840398	      0.00000000	      6.46636038	     -0.00000000
     15.00600000	      0.00000000	      0.00000000	      0.00000000	      0.00000000	      0.00000000	      0.00000000	      0.00000000	      0.00000000	      0.00000000	   -101.96238574	    918.20009275	     13.37220511	      2.29758896	      0.00000000	      0.98862973	      0.00000000	      6.54781107	     -0.00000000
     15.00700000	      0.00000000	      0.00000000	      0.00000000	      0.00000000	      0.00000000	      0.00000000	      0.00000000	      0.00000000	      0.00000000	   -104.38675099	    936.67932238	     13.79200412	      2.29688651	      0.00000000	      0.98884236	      0.00000000	      6.62866423	     -0.00000000
     15.00800000	      0.00000000	      0.00000000	      0.00000000	      0.00000000	      0.00000000	      0.00000000	      0.00000000	      0.00000000	      0.00000000	   -106.68787616	    954.31907082	     14.19510933	      2.29612455	      0.00000000	      0.98902876	      0.00000000	      6.70832234	     -0.00000000
     15.00900000	      0.00000000	      0.00000000	      0.00000000	      0.00000000	      0.00000000	      0.00000000	      0.00000000	      0.00000000	      0.00000000	   -108.98900134	    971.95881925	     14.59821453	      2.29536259	      0.00000000	      0.98921516	      0.00000000	      6.78798044	     -0.00000000
     15.01000000	      0.00000000	      0.00000000	      0.00000000	      0.00000000	      0.00000000	      0.00000000	      0.00000000	      0.00000000	      0.00000000	   -111.29012651	    989.59856769	     15.00131974	      2.29460063	      0.00000000	      0.98940157	      0.00000000	      6.86763855	     -0.00000000
     15.01100000	      0.00000000	      0.00000000	      0.00000000	      0.00000000	      0.00000000	      0.00000000	      0.00000000	      0.00000000	      0.00000000	   -113.35781676	   1006.01704907	     15.39669465	      2.29374199	      0.00000000	      0.98954852	      0.00000000	      6.94624930	     -0.00000000
     15.01200000	      0.00000000	      0.00000000	      0.00000000	      0.00000000	      0.00000000	      0.00000000	      0.00000000	      0.00000000	      0.00000000	   -115.42550702	   1022.43553045	     15.79206955	      2.29288335	      0.00000000	      0.98969547	      0.00000000	      7.02486005	     -0.00000000
     15.01300000	      0.00000000	      0.00000000	      0.00000000	      0.00000000	      0.00000000	      0.00000000	      0.00000000	      0.00000000	      0.00000000	   -117.49319727	   1038.85401183	     16.18744446	      2.29202471	      0.00000000	      0.98984242	      0.00000000	      7.10347080	     -0.00000000
     15.01400000	      0.00000000	      0.00000000	      0.00000000	      0.00000000	      0.00000000	      0.00000000	      0.00000000	      0.00000000	      0.00000000	   -119.37436208	   1054.49120514	     16.58790732	      2.29109780	      0.00000000	      0.98996346	      0.00000000	      7.18173053	     -0.00000000
     15.01500000	      0.00000000	      0.00000000	      0.00000000	      0.00000000	      0.00000000	      0.00000000	      0.00000000	      0.00000000	      0.00000000	   -121.16226417	   1069.73775442	     16.99091415	      2.29013674	      0.00000000	      0.99007155	      0.00000000	      7.25981474	     -0.00000000
     15.01600000	      0.00000000	      0.00000000	      0.00000000	      0.00000000	      0.00000000	      0.00000000	      0.00000000	      0.00000000	      0.00000000	   -122.95016626	   1084.98430369	     17.39392098	      2.28917568	      0.00000000	      0.99017963	      0.00000000	      7.33789895	     -0.00000000
     15.01700000	      0.00000000	      0.00000000	      0.00000000	      0.00000000	      0.00000000	      0.00000000	      0.00000000	      0.00000000	      0.00000000	   -124.63085075	   1099.85877440	     17.80363872	      2.28817918	      0.00000000	      0.99027517	      0.00000000	      7.41589737	     -0.00000000
     15.01800000	      0.00000000	      0.00000000	      0.00000000	      0.00000000	      0.00000000	      0.00000000	      0.00000000	      0.00000000	      0.00000000	   -126.09710006	   1113.98908800	     18.22677831	      2.28711180	      0.00000000	      0.99034561	      0.00000000	      7.49372420	     -0.00000000
     15.01900000	      0.00000000	      0.00000000	      0.00000000	      0.00000000	      0.00000000	      0.00000000	      0.00000000	      0.00000000	      0.00000000	   -127.56334936	   1128.11940159	     18.64991789	      2.28604442	      0.00000000	      0.99041605	      0.00000000	      7.57155103	     -0.00000000
